<?xml version="1.0" standalone="no"?>
<!DOCTYPE svg PUBLIC "-//W3C//DTD SVG 20010904//EN"
 "http://www.w3.org/TR/2001/REC-SVG-20010904/DTD/svg10.dtd">
<svg version="1.0" xmlns="http://www.w3.org/2000/svg"
 width="552.000000pt" height="552.000000pt" viewBox="0 0 552.000000 552.000000"
 preserveAspectRatio="xMidYMid meet">
<metadata>
Created by potrace 1.16, written by Peter Selinger 2001-2019
</metadata>
<g transform="translate(0.000000,552.000000) scale(0.100000,-0.100000)"
fill="#000000" stroke="none">
<path d="M0 3734 l0 -1786 21 -17 c41 -33 61 -221 27 -254 -10 -11 -19 -13
-23 -7 -18 30 -23 -7 -23 -167 1 -134 3 -164 9 -121 5 32 15 70 23 85 13 27
14 25 21 -50 6 -64 4 -81 -10 -103 -10 -15 -22 -23 -31 -20 -11 4 -14 -8 -14
-63 0 -52 4 -70 15 -75 8 -3 15 -12 15 -20 0 -7 -7 -16 -15 -20 -8 -3 -15 -14
-15 -25 0 -16 8 -21 42 -24 l43 -4 -42 -1 -43 -2 0 -101 c0 -92 2 -101 18 -94
9 4 50 12 90 18 44 6 76 16 79 24 7 17 33 17 33 0 0 -7 -5 -18 -11 -24 -21
-21 -2 -45 33 -41 30 3 33 6 36 41 3 30 7 37 20 35 20 -4 28 -44 13 -62 -16
-19 12 -40 41 -32 42 11 53 23 39 40 -11 13 -11 19 -1 31 7 8 19 15 27 15 10
0 12 6 8 20 -9 27 32 46 72 33 17 -6 45 -6 73 0 38 8 42 11 28 20 -15 10 -14
13 10 23 25 11 26 12 7 19 -11 5 -32 17 -48 27 -15 11 -39 18 -55 16 -25 -3
-27 0 -30 40 -2 23 -5 42 -6 42 -2 0 -19 -6 -37 -14 -54 -22 -284 -59 -324
-52 -32 6 -35 10 -35 41 0 29 4 34 28 37 20 2 34 -4 53 -26 20 -24 30 -28 52
-22 18 4 27 13 27 26 0 18 7 20 58 21 31 0 87 2 124 5 40 3 68 1 68 -5 0 -5
30 -8 66 -8 64 2 67 1 69 -22 3 -43 55 -67 168 -77 30 -2 69 -41 62 -62 -3 -7
2 -23 10 -36 14 -20 14 -25 1 -35 -24 -20 -8 -41 30 -41 30 0 34 3 34 25 0 17
9 29 30 40 28 14 32 14 46 0 15 -14 84 -21 96 -9 3 3 -2 27 -12 54 l-18 49
136 3 137 3 5 40 c5 37 9 42 61 68 33 17 110 39 190 55 136 28 161 42 114 67
-11 6 -31 18 -45 27 -14 8 -43 21 -65 28 -22 7 -44 16 -50 20 -5 3 -29 12 -51
18 -23 7 -68 32 -100 57 -48 37 -65 45 -101 45 -51 0 -58 17 -8 22 20 2 35 8
35 13 0 6 -47 10 -120 10 -147 0 -170 19 -27 23 62 2 97 7 97 14 0 7 -21 8
-68 4 -76 -8 -158 2 -144 16 5 5 66 12 136 15 69 3 126 10 126 16 0 6 -48 7
-127 2 -102 -5 -132 -4 -147 7 -16 13 -17 17 -5 36 7 11 22 24 34 28 19 6 19
7 -3 11 -13 3 -29 0 -36 -6 -8 -7 -31 -9 -57 -5 -41 6 -46 4 -58 -20 -8 -14
-21 -26 -28 -26 -23 0 -64 32 -59 45 2 7 -5 23 -16 35 -24 26 -16 37 32 44 19
3 47 8 62 12 18 4 40 0 65 -13 46 -24 58 -21 102 24 29 31 37 35 72 30 35 -5
40 -2 45 18 8 32 40 59 59 51 20 -7 17 -72 -3 -68 -7 1 -26 -7 -42 -18 -16
-11 -32 -20 -37 -19 -27 5 -29 -4 -8 -26 14 -13 25 -31 25 -41 0 -14 12 -15
100 -11 105 5 121 12 133 57 8 30 61 90 80 90 7 0 22 6 33 14 13 10 25 11 35
5 10 -6 10 -9 2 -9 -24 0 -93 -77 -93 -103 0 -22 6 -27 47 -35 26 -6 51 -8 56
-5 5 3 7 21 4 40 -8 45 7 83 32 83 11 0 27 12 36 28 14 22 24 27 62 30 25 1
52 -3 59 -9 17 -14 73 -4 88 15 9 12 21 13 56 6 25 -4 96 -4 160 0 192 15 287
15 304 1 21 -17 10 -37 -27 -51 -138 -52 -130 -46 -122 -88 4 -20 13 -55 20
-77 15 -41 7 -65 -21 -65 -8 0 -14 -4 -14 -8 0 -9 -128 -49 -170 -54 -14 -2
-25 -9 -25 -18 0 -12 21 -15 123 -17 120 -2 180 9 197 37 11 18 43 11 60 -12
24 -35 51 -13 71 56 5 16 15 31 23 34 10 3 12 -7 10 -47 -4 -57 -6 -56 77 -66
59 -8 94 -20 105 -38 10 -14 -2 -47 -16 -47 -7 0 -15 -9 -18 -20 -4 -17 0 -22
24 -27 25 -5 29 -10 29 -39 0 -19 -4 -34 -9 -34 -9 0 -31 -53 -31 -74 0 -13
55 -46 76 -46 8 0 40 -13 72 -28 80 -41 187 -57 242 -37 95 33 330 10 358 -36
23 -36 -60 -46 -285 -33 -110 6 -127 5 -191 -16 -54 -18 -84 -36 -129 -76 -32
-30 -64 -54 -70 -54 -7 0 -13 -9 -13 -19 0 -16 10 -20 65 -26 103 -11 184 3
335 57 30 11 71 24 90 28 19 5 53 13 75 18 55 14 388 24 449 15 57 -9 80 -33
54 -59 -18 -18 -180 -54 -244 -54 -26 0 -44 -5 -47 -14 -3 -7 -22 -16 -41 -20
-20 -4 -36 -10 -36 -14 0 -4 -10 -12 -22 -17 -18 -8 -24 -20 -26 -52 -2 -29
-8 -43 -18 -43 -8 0 -14 -6 -14 -14 0 -19 140 -31 285 -23 l110 6 23 -30 c13
-16 19 -29 13 -29 -5 0 -16 -6 -23 -13 -15 -14 -97 -37 -133 -37 -13 0 -27 -5
-30 -10 -3 -6 -22 -10 -41 -10 -19 0 -34 -5 -34 -11 0 -5 -4 -8 -8 -5 -5 3
-49 -1 -98 -9 -49 -8 -109 -17 -134 -19 -25 -3 -65 -10 -90 -15 -25 -5 -81
-17 -125 -26 -44 -9 -98 -20 -120 -25 -158 -33 -205 -42 -240 -47 -22 -2 -47
-7 -55 -10 -55 -22 -160 -27 -200 -11 -65 27 -398 1 -900 -72 -74 -11 -229
-31 -345 -45 -115 -14 -284 -34 -375 -45 -91 -11 -173 -23 -182 -26 -9 -3 -68
-9 -130 -15 -140 -12 -216 -21 -388 -48 -74 -11 -136 -21 -137 -21 -2 0 -3
-25 -3 -55 l0 -55 2760 0 2760 0 0 2760 0 2760 -2760 0 -2760 0 0 -1786z m730
1733 c63 -32 60 -105 -6 -133 -42 -18 -126 -11 -144 11 -27 33 -4 108 39 124
37 13 82 13 111 -2z m1434 -86 c4 -5 0 -12 -6 -14 -9 -4 -8 -6 2 -7 15 -1 60
-33 60 -43 0 -3 -16 -7 -35 -9 -19 -2 -35 0 -35 4 0 4 -4 8 -10 8 -5 0 -9 -3
-9 -7 3 -20 -2 -24 -16 -13 -8 7 -15 22 -15 33 0 37 49 73 64 48z m106 -74 c0
-17 -38 -53 -46 -44 -4 3 1 13 10 22 9 9 16 21 16 26 0 5 5 9 10 9 6 0 10 -6
10 -13z m-1620 -137 c19 -9 48 -20 65 -24 32 -8 107 -60 141 -98 29 -32 36
-55 20 -70 -7 -8 -18 -23 -25 -36 -30 -55 -142 -65 -266 -22 -116 40 -157 90
-141 173 18 94 106 127 206 77z m2555 -36 c42 -20 95 -86 95 -118 0 -14 10
-42 22 -63 11 -21 24 -51 29 -68 6 -25 7 -26 8 -7 2 36 18 17 26 -30 10 -55
-21 -156 -50 -164 -11 -3 -27 -15 -36 -26 -15 -20 -16 -19 -45 5 -37 31 -87
51 -181 71 -101 22 -129 21 -136 -6 -3 -12 -2 -29 3 -39 11 -19 3 -49 -12 -49
-16 0 -94 -82 -117 -122 -18 -33 -19 -39 -5 -52 13 -13 12 -16 -3 -25 -17 -10
-17 -12 -2 -21 14 -8 15 -17 9 -46 -5 -19 -11 -38 -13 -41 -11 -10 -80 22 -85
40 -5 20 -4 20 -36 6 -20 -9 -29 -9 -41 1 -27 22 -16 43 63 120 157 152 182
193 182 297 0 137 96 303 196 338 52 19 89 18 129 -1z m2204 -476 c39 -34 56
-57 48 -65 -14 -13 -88 -22 -138 -17 -60 7 -94 21 -71 31 6 2 12 15 12 28 0
14 11 33 27 45 35 28 73 21 122 -22z m-2309 -11 c64 -14 94 -29 133 -65 33
-31 35 -46 5 -36 -46 15 -121 -1 -140 -29 -9 -14 -55 17 -63 43 -7 23 -25 27
-25 6 0 -8 -9 -18 -21 -21 -20 -7 -20 -8 8 -37 41 -44 97 -77 152 -90 40 -9
57 -8 100 7 48 16 54 16 77 1 19 -13 22 -21 15 -35 -12 -22 -95 -91 -110 -91
-12 0 -26 -14 -76 -74 -16 -20 -45 -52 -62 -71 -23 -25 -33 -45 -33 -68 0 -18
-4 -48 -10 -66 -5 -19 -8 -37 -5 -39 4 -5 66 37 76 51 4 5 17 -1 29 -13 18
-18 21 -29 15 -58 -3 -21 -17 -47 -30 -59 -32 -29 -127 -50 -159 -35 -23 10
-84 -2 -102 -21 -4 -4 -20 -7 -35 -7 -15 0 -30 -4 -33 -9 -9 -14 -88 8 -113
30 -29 28 -37 78 -19 130 9 24 13 54 10 66 -7 27 -10 27 75 8 53 -13 74 -13
97 -4 27 10 27 12 9 19 -15 6 -7 9 30 11 l50 4 -97 47 c-53 27 -103 45 -112
42 -19 -7 -52 42 -47 70 8 49 17 51 133 30 58 -10 96 41 69 94 -5 9 -15 31
-22 47 -7 17 -22 38 -34 48 -20 17 -20 17 -1 32 30 23 46 18 46 -12 0 -19 3
-24 9 -15 4 8 12 13 17 12 5 0 11 14 14 31 3 21 11 33 23 35 34 5 72 47 69 77
-4 31 3 32 88 14z m-2753 -311 c26 -23 28 -29 28 -99 0 -66 -3 -79 -24 -101
-50 -53 -141 -53 -175 -1 -24 37 -31 117 -12 153 38 73 126 97 183 48z m2369
-198 c48 -22 48 -23 19 -26 -16 -2 -36 -8 -42 -14 -10 -8 -13 -6 -13 6 0 9 -4
16 -10 16 -5 0 -10 9 -10 20 0 25 -3 25 56 -2z m-160 -148 c-9 -27 -16 -56
-16 -64 0 -9 -4 -16 -10 -16 -5 0 -10 -5 -10 -11 0 -5 -11 -27 -26 -47 -25
-37 -25 -37 -18 -7 4 17 18 53 31 80 12 28 23 56 23 63 0 20 34 75 38 62 2 -6
-3 -33 -12 -60z m-111 -52 c-9 -40 -52 -138 -61 -138 -12 0 6 84 27 128 25 50
44 56 34 10z m155 5 c0 -5 -9 -21 -20 -38 -11 -16 -20 -23 -20 -15 0 8 -8 -1
-18 -20 -10 -19 -35 -66 -55 -104 -21 -38 -37 -73 -37 -78 0 -4 -14 -27 -31
-51 -23 -31 -29 -36 -24 -17 13 42 84 185 103 205 10 11 26 37 35 58 12 23 23
35 30 31 7 -4 9 -4 5 1 -4 4 -3 14 3 22 12 14 29 18 29 6z m-140 -141 c0 -5
-7 -17 -15 -28 -14 -18 -14 -17 -4 9 12 27 19 34 19 19z m842 -284 c-10 -22
-11 -21 -11 12 -1 26 2 31 11 22 8 -8 8 -17 0 -34z m-15 -102 c-26 -55 -55
-78 -43 -33 3 12 6 29 6 38 0 25 41 72 52 61 7 -7 1 -29 -15 -66z m-1346 -92
c17 -16 17 -18 -2 -55 -22 -43 -14 -67 28 -90 26 -14 17 -33 -20 -45 -12 -4
-33 -15 -47 -24 -14 -10 -43 -20 -65 -23 -22 -3 -33 -3 -25 -1 18 5 50 88 50
128 0 16 5 26 15 26 18 0 19 9 5 46 -18 46 23 72 61 38z m153 -10 c9 -3 16
-12 16 -19 0 -7 12 -29 26 -50 32 -48 38 -103 14 -130 -9 -11 -22 -33 -27 -50
-13 -40 -40 -44 -55 -8 -6 15 -10 36 -9 47 2 10 -6 28 -17 40 -11 11 -23 43
-27 69 -7 44 -5 51 21 78 30 31 33 32 58 23z m-1254 -132 c0 -5 -11 -14 -24
-20 -19 -8 -25 -8 -29 3 -3 7 -3 16 0 19 9 9 53 7 53 -2z m-122 -21 c29 -24
28 -35 -5 -50 -19 -9 -23 -15 -14 -20 15 -10 11 -77 -5 -74 -6 1 -22 -10 -35
-24 -13 -14 -19 -24 -14 -21 6 2 28 12 50 21 80 35 116 55 115 63 0 5 7 10 17
11 194 19 236 27 241 45 2 10 13 18 24 18 17 0 18 -3 8 -15 -10 -12 -10 -15 1
-15 306 0 480 -7 491 -19 11 -11 7 -12 -27 -5 -64 14 -428 9 -456 -7 -14 -7
-19 -14 -11 -17 18 -6 14 -31 -10 -63 -13 -15 -39 -49 -58 -74 -22 -28 -40
-43 -49 -40 -18 7 -61 -33 -61 -57 0 -21 -27 -23 -52 -4 -41 30 -13 105 56
151 28 19 67 48 86 64 l35 30 -46 1 c-26 0 -60 -3 -77 -6 -27 -6 -30 -9 -22
-30 13 -34 3 -52 -41 -74 -21 -11 -55 -32 -76 -46 -21 -14 -48 -30 -60 -35
-13 -5 -23 -13 -23 -19 0 -5 -6 -10 -14 -10 -8 0 -16 -5 -18 -12 -2 -6 -15 5
-27 26 -17 28 -22 46 -18 72 3 19 2 34 -3 34 -4 0 -39 -16 -78 -36 -58 -30
-73 -34 -91 -25 -32 17 -29 77 6 113 15 15 33 28 41 28 9 0 11 7 7 21 -6 19
-4 21 32 18 21 -2 59 1 85 5 44 8 46 9 36 31 -7 16 -7 29 1 44 14 26 31 27 59
2z m275 2 c-7 -2 -19 -2 -25 0 -7 3 -2 5 12 5 14 0 19 -2 13 -5z m961 -69 c22
-9 20 -24 -3 -24 -11 0 -23 -4 -26 -10 -3 -5 3 -10 14 -10 23 0 26 -11 12 -38
-5 -9 -12 -25 -15 -35 -5 -17 -7 -17 -31 -1 -35 23 -45 46 -36 80 5 21 15 31
37 35 16 4 30 7 31 8 1 0 8 -2 17 -5z m-179 -34 c-11 -5 -45 -8 -75 -8 l-55 1
50 7 c28 4 61 7 75 8 23 1 23 0 5 -8z m390 -27 c-5 -15 -8 -37 -9 -48 -1 -11
-9 -21 -18 -23 -29 -6 -25 64 5 88 27 22 32 19 22 -17z m-1937 -195 c11 -27
10 -28 -17 -28 -15 0 -35 8 -43 18 -19 20 -32 77 -23 93 9 13 65 -44 83 -83z
m862 17 c-11 -20 -20 -49 -20 -65 0 -29 -37 -80 -59 -80 -16 0 -14 -11 5 -25
15 -11 15 -15 -7 -44 -20 -27 -28 -32 -53 -27 -58 12 -62 26 -18 66 22 21 43
51 47 69 3 17 14 37 23 43 9 7 17 26 17 42 0 24 6 31 35 42 51 18 52 17 30
-21z m2060 -54 c-24 -35 -30 -38 -30 -16 0 17 39 59 47 51 3 -2 -5 -19 -17
-35z m-2820 -21 l32 -30 -27 -10 c-42 -16 -54 -12 -63 23 -16 57 8 64 58 17z
m2861 -37 c-23 -43 -61 -86 -61 -70 0 9 14 32 31 52 34 38 45 45 30 18z
m-2325 -27 c1 0 5 -16 9 -33 5 -26 3 -33 -9 -33 -9 0 -16 -5 -16 -10 0 -21
-38 9 -44 36 -9 33 10 57 38 48 12 -4 22 -7 22 -8z m3024 -236 c13 -9 13 -10
0 -10 -8 0 -22 5 -30 10 -13 9 -13 10 0 10 8 0 22 -5 30 -10z m-636 -161 c-4
-8 1 -9 16 -4 l22 7 -18 -31 c-10 -17 -23 -31 -29 -31 -5 0 -30 -16 -54 -35
-61 -48 -64 -44 -8 13 26 26 47 55 47 63 0 18 9 29 22 29 5 0 6 -5 2 -11z
m146 -27 c0 -5 -9 -17 -20 -27 -23 -21 -26 -14 -8 15 13 20 28 27 28 12z
m-632 -61 c-24 -20 -35 -13 -23 17 5 14 7 14 15 2 7 -12 10 -11 16 5 5 11 9
14 12 7 2 -7 -7 -21 -20 -31z m-678 22 c0 -5 -4 -15 -10 -23 -11 -18 -25 -7
-17 15 6 15 27 21 27 8z m250 -81 c0 -5 -7 -17 -15 -28 -14 -19 -14 -19 -15 2
0 11 3 24 7 27 9 10 23 9 23 -1z m1960 4 c0 -3 -4 -8 -10 -11 -5 -3 -10 -1
-10 4 0 6 5 11 10 11 6 0 10 -2 10 -4z m-1100 -66 c0 -13 -28 -25 -38 -16 -3
4 0 11 8 16 20 13 30 12 30 0z m-2480 -15 c21 -26 -1 -69 -42 -79 -53 -13 -71
-3 -63 36 4 18 12 39 17 46 14 17 73 15 88 -3z m2280 -20 c-7 -9 -15 -13 -17
-11 -7 7 7 26 19 26 6 0 6 -6 -2 -15z m681 -22 c2 -51 9 -118 14 -130 2 -7 0
-13 -5 -13 -6 0 -10 3 -10 8 -1 23 -19 130 -25 145 -5 12 -2 17 9 17 11 0 16
-9 17 -27z m-2783 -50 c-2 -10 -7 -17 -11 -15 -4 1 -17 2 -29 2 -22 1 -23 1
-4 15 27 20 48 19 44 -2z m-58 -34 c0 -5 -4 -9 -8 -9 -5 0 -19 -9 -32 -20 -13
-12 -29 -19 -36 -16 -14 5 -51 -31 -41 -40 6 -6 18 -3 47 15 8 5 26 13 40 19
14 5 38 15 53 21 16 6 27 8 25 4 -2 -5 -12 -26 -22 -48 -19 -44 -112 -169
-145 -197 -24 -20 -51 -24 -51 -6 0 24 -51 118 -71 128 -16 9 -19 19 -17 53 3
47 25 57 44 19 16 -32 28 -41 20 -14 -5 14 -3 22 5 22 7 0 27 11 45 25 18 14
42 25 53 25 12 0 29 8 39 18 17 18 52 18 52 1z m-377 -52 c29 -18 56 -45 67
-67 11 -21 27 -40 36 -44 10 -4 14 -13 11 -26 -3 -12 7 -33 30 -60 20 -22 33
-43 31 -45 -2 -3 -25 7 -51 20 -25 14 -55 25 -66 25 -11 0 -22 9 -26 20 -3 11
-11 20 -16 20 -12 0 -12 1 16 -84 14 -41 25 -88 25 -105 0 -29 -2 -31 -32 -28
-26 2 -33 7 -34 23 -3 61 -18 81 -56 75 -13 -2 -29 37 -18 44 16 10 12 29 -15
57 -14 15 -25 30 -25 33 0 4 -6 13 -14 20 -11 12 -16 5 -32 -41 -19 -58 -40
-69 -78 -41 -15 11 -17 17 -7 35 6 12 16 22 21 22 9 0 41 53 40 65 -1 3 10 20
24 36 15 17 26 35 26 40 0 5 9 18 20 29 25 25 56 19 123 -23z m2530 -109 c-10
-46 -13 -52 -24 -41 -6 6 -6 19 0 36 13 33 31 36 24 5z m-1613 -63 c0 -18 -36
-38 -52 -29 -7 4 -2 13 13 25 29 23 39 24 39 4z m1723 -6 c6 -24 -2 -59 -14
-59 -5 0 -9 6 -10 13 -1 6 -4 1 -9 -13 l-7 -25 -12 30 c-17 41 -7 73 23 73 15
0 26 -7 29 -19z m147 -19 c0 -5 -5 -10 -11 -10 -5 0 -7 5 -4 10 3 6 8 10 11
10 2 0 4 -4 4 -10z m29 -95 c0 -5 -4 -3 -9 5 -5 8 -9 22 -9 30 0 16 17 -16 18
-35z m-2871 -68 c-30 -8 -33 -16 -6 -21 33 -6 54 -17 66 -37 17 -27 8 -35 -23
-21 -14 6 -32 9 -40 5 -10 -3 -24 3 -36 16 -11 11 -23 21 -26 21 -6 0 18 -31
49 -63 21 -21 24 -41 6 -32 -7 4 5 -11 28 -32 29 -27 39 -44 37 -60 -5 -28
-19 -30 -26 -4 -3 14 -11 18 -25 14 -11 -2 -23 1 -27 7 -5 9 -1 10 14 5 11 -3
21 -3 21 1 0 10 -58 64 -70 64 -15 0 -12 -7 12 -30 17 -16 19 -20 6 -20 -9 0
-18 -6 -20 -12 -5 -13 -46 9 -76 39 -7 7 -21 13 -30 13 -23 0 -106 32 -114 44
-15 22 -7 42 22 59 17 10 30 26 30 36 0 27 12 33 31 15 14 -12 29 -15 57 -11
26 5 45 2 59 -8 13 -9 24 -11 28 -6 3 6 -4 15 -15 21 -32 17 -23 30 20 30 25
0 40 5 40 13 0 6 9 1 20 -13 l19 -25 -31 -8z m2892 19 c0 -14 -4 -28 -10 -31
-6 -4 -10 7 -10 24 0 17 5 31 10 31 6 0 10 -11 10 -24z m-2650 -100 c0 -14 -4
-28 -10 -31 -6 -4 -10 7 -10 24 0 17 5 31 10 31 6 0 10 -11 10 -24z m141 -78
c6 -13 23 -33 37 -46 25 -21 25 -24 10 -35 -15 -12 -14 -15 7 -35 29 -28 55
-29 55 -1 0 15 5 19 18 15 27 -8 143 -36 148 -36 2 0 4 -4 4 -10 0 -15 -179
-12 -294 5 -179 27 -174 26 -148 36 12 5 25 17 28 26 3 10 9 25 14 34 11 21 3
29 -29 30 l-26 0 25 10 c26 11 93 26 122 28 10 1 22 -9 29 -21z m-271 -184
c38 -25 44 -44 16 -44 -19 0 -67 26 -77 42 -24 37 7 38 61 2z m-312 9 c-10 -2
-26 -2 -35 0 -10 3 -2 5 17 5 19 0 27 -2 18 -5z m132 -7 c0 -7 -7 -19 -15 -26
-13 -10 -19 -10 -33 4 -10 9 -27 16 -38 16 -16 0 -17 2 -4 10 24 15 90 12 90
-4z m-195 -7 c10 -15 -1 -23 -20 -15 -9 3 -13 10 -10 16 8 13 22 13 30 -1z
m270 1 c3 -5 1 -10 -4 -10 -6 0 -11 5 -11 10 0 6 2 10 4 10 3 0 8 -4 11 -10z
m85 -180 c0 -11 -4 -20 -10 -20 -5 0 -10 9 -10 20 0 11 5 20 10 20 6 0 10 -9
10 -20z m497 9 c25 -9 39 -45 24 -62 -7 -9 -26 -11 -58 -8 -42 5 -48 9 -51 31
-2 14 -11 31 -20 38 -15 11 -10 13 33 11 28 -1 60 -6 72 -10z m-635 -91 c-16
-16 -37 4 -28 28 6 16 8 16 23 1 13 -13 15 -19 5 -29z"/>
<path d="M2720 4420 c0 -5 5 -10 10 -10 6 0 10 5 10 10 0 6 -4 10 -10 10 -5 0
-10 -4 -10 -10z"/>
<path d="M1856 3131 c-4 -7 -5 -15 -2 -18 9 -9 19 4 14 18 -4 11 -6 11 -12 0z"/>
<path d="M2090 3100 c-8 -5 -12 -12 -9 -15 8 -8 39 5 39 16 0 11 -11 11 -30
-1z"/>
<path d="M0 1730 c0 -6 7 -10 15 -10 8 0 15 2 15 4 0 2 -7 6 -15 10 -8 3 -15
1 -15 -4z"/>
<path d="M1481 1633 c-15 -13 -22 -33 -25 -68 -7 -87 39 -135 157 -164 52 -12
87 -7 87 12 0 20 -24 81 -41 108 -34 51 -116 129 -136 129 -11 0 -30 -8 -42
-17z"/>
<path d="M1318 1633 c6 -2 18 -2 25 0 6 3 1 5 -13 5 -14 0 -19 -2 -12 -5z"/>
<path d="M1430 1120 c0 -5 15 -10 33 -10 24 0 28 3 17 10 -20 13 -50 13 -50 0z"/>
<path d="M659 839 c-24 -48 -15 -61 36 -57 28 3 30 6 27 37 -3 35 -17 61 -33
61 -5 0 -18 -19 -30 -41z"/>
<path d="M1010 784 c-12 -22 -12 -27 0 -34 18 -12 22 -12 38 -2 9 7 10 15 3
35 -13 34 -24 34 -41 1z"/>
<path d="M1208 788 c-19 -30 -12 -48 17 -48 31 0 38 12 25 44 -12 32 -23 33
-42 4z"/>
<path d="M16 718 c-22 -44 -21 -48 19 -48 43 0 54 20 31 55 -22 33 -31 32 -50
-7z"/>
</g>
</svg>
