<?xml version="1.0" standalone="no"?>
<!DOCTYPE svg PUBLIC "-//W3C//DTD SVG 20010904//EN"
 "http://www.w3.org/TR/2001/REC-SVG-20010904/DTD/svg10.dtd">
<svg version="1.0" xmlns="http://www.w3.org/2000/svg"
 width="195.000000pt" height="190.000000pt" viewBox="0 0 195.000000 190.000000"
 preserveAspectRatio="xMidYMid meet">
<metadata>
Created by potrace 1.16, written by Peter Selinger 2001-2019
</metadata>
<g transform="translate(0.000000,190.000000) scale(0.100000,-0.100000)"
fill="#000000" stroke="none">
<path d="M425 1783 c-16 -8 -39 -23 -49 -32 -22 -19 -76 -91 -76 -102 0 -4 13
-12 30 -17 28 -10 31 -9 55 32 36 61 94 85 115 47 7 -15 5 -31 -11 -68 -18
-43 -28 -117 -17 -129 3 -2 19 -1 36 2 31 6 32 8 32 56 0 29 8 65 20 88 25 49
19 81 -22 115 -34 29 -70 31 -113 8z"/>
<path d="M978 1705 c-55 -29 -79 -57 -108 -128 -17 -41 -30 -56 -60 -70 -21
-10 -66 -42 -99 -72 -34 -30 -69 -59 -80 -64 -10 -6 -32 -31 -47 -56 -27 -42
-32 -45 -72 -45 -26 0 -41 -4 -37 -10 3 -5 20 -10 37 -10 30 0 30 -1 24 -37
-3 -21 -6 -47 -6 -59 0 -12 -10 -26 -22 -32 -23 -11 -23 -11 -2 -11 17 -1 25
-12 38 -51 17 -52 15 -70 -9 -70 -8 0 -17 -5 -21 -12 -5 -8 3 -9 28 -5 31 5
40 1 69 -30 19 -19 54 -46 79 -61 25 -14 47 -27 49 -29 2 -1 -43 -52 -101
-111 -83 -84 -110 -120 -124 -159 -15 -42 -22 -50 -43 -50 -30 0 -63 -38 -59
-67 2 -17 47 -48 86 -62 1 0 6 -35 12 -76 11 -88 24 -122 56 -143 34 -22 208
-30 319 -15 50 6 100 13 112 14 42 6 79 27 96 55 22 38 21 59 -4 100 -24 39
-19 49 13 27 35 -25 76 -20 109 13 16 16 29 38 29 49 0 11 8 34 17 50 15 27
16 33 3 56 -7 15 -23 29 -34 32 -17 4 -66 62 -66 78 0 2 21 -2 47 -10 63 -19
178 -18 238 3 l48 16 27 -29 c14 -16 33 -40 43 -54 9 -13 19 -21 23 -17 8 8
-28 67 -56 92 l-21 19 33 28 33 27 32 -31 c44 -42 56 -27 14 16 l-33 34 23 34
c12 18 24 35 25 36 6 9 48 -12 90 -44 25 -20 49 -32 52 -29 9 9 -52 60 -95 80
-18 9 -33 17 -33 19 0 2 7 21 16 42 9 22 17 71 18 116 1 55 6 82 18 95 9 10
19 32 23 48 4 17 16 54 26 83 10 29 19 74 19 101 0 42 -3 49 -25 59 -14 7 -61
12 -105 12 -73 0 -79 2 -85 23 -15 53 -39 97 -57 103 -32 10 -81 -4 -111 -32
-32 -29 -31 -29 -142 20 -55 24 -83 43 -89 58 -28 76 -43 102 -73 133 -19 19
-39 35 -46 35 -7 -1 -33 -12 -59 -25z m98 -52 c15 -20 34 -59 41 -87 13 -49
25 -66 51 -66 7 0 47 -16 88 -35 l75 -34 -25 -44 c-35 -59 -35 -109 0 -132 15
-9 44 -20 65 -22 29 -4 39 -10 39 -24 0 -9 11 -31 25 -47 17 -21 25 -42 25
-70 0 -83 63 -115 143 -72 20 11 39 20 42 20 10 0 3 -105 -9 -145 -9 -31 -17
-39 -32 -37 -81 12 -98 12 -79 2 11 -5 32 -14 48 -20 33 -12 34 -21 4 -56 -23
-26 -24 -26 -49 -10 -17 11 -28 13 -33 7 -3 -6 5 -16 20 -23 30 -13 28 -25 -7
-51 -24 -18 -27 -18 -52 -2 -27 18 -36 9 -14 -13 18 -18 -4 -30 -69 -38 -104
-13 -234 21 -403 106 -122 61 -128 77 -40 109 32 12 62 26 65 31 4 6 16 3 30
-6 53 -34 100 12 59 57 -14 16 -13 21 7 61 53 103 30 251 -51 336 -57 59 -111
84 -200 91 l-75 6 64 33 c35 17 70 32 78 32 7 0 13 5 13 10 0 6 -7 10 -15 10
-23 0 -18 21 15 73 30 47 81 87 111 87 9 0 29 -17 45 -37z m-161 -260 c96 -32
175 -143 175 -243 0 -113 -79 -224 -182 -255 -66 -19 -103 -19 -166 1 -70 23
-115 63 -151 135 -25 51 -30 70 -27 122 7 181 180 299 351 240z m794 -39 c37
-8 40 -33 15 -106 l-15 -46 -55 26 c-30 15 -54 32 -54 39 0 6 -11 25 -25 41
-18 22 -21 32 -13 40 13 13 96 16 147 6z m-631 -432 c3 -16 -2 -22 -17 -22
-26 0 -36 17 -20 36 16 19 33 13 37 -14z m-238 -87 c0 -8 -7 -15 -15 -15 -8 0
-15 7 -15 15 0 8 7 15 15 15 8 0 15 -7 15 -15z m28 -58 c6 -7 11 -37 12 -67 0
-30 1 -66 1 -79 2 -67 -87 -106 -134 -59 -34 35 -43 90 -20 136 31 62 113 103
141 69z m128 -68 c38 -17 70 -32 72 -34 6 -5 -25 -70 -39 -82 -27 -22 -64 -25
-87 -6 -16 14 -23 34 -28 86 -4 42 -3 67 3 67 6 0 41 -14 79 -31z m139 -122
c-20 -11 -29 -3 -21 19 5 13 9 14 22 3 14 -11 14 -13 -1 -22z m45 -32 c7 -8
18 -15 25 -15 29 0 34 -25 16 -79 -26 -82 -66 -101 -117 -58 -24 21 -26 27
-19 75 6 43 12 54 38 71 40 24 42 24 57 6z m-360 -45 c0 -5 -4 -10 -9 -10 -6
0 -13 5 -16 10 -3 6 1 10 9 10 9 0 16 -4 16 -10z m-330 -40 c0 -33 -7 -37 -35
-16 -16 12 -17 16 -6 30 22 26 41 19 41 -14z m538 3 c-2 -10 -10 -18 -18 -18
-8 0 -16 8 -18 18 -2 12 3 17 18 17 15 0 20 -5 18 -17z m32 -145 c25 -28 25
-48 -1 -82 -15 -19 -30 -26 -54 -26 -33 0 -33 0 -24 34 6 21 6 43 0 59 -9 23
-7 26 17 30 15 2 30 5 34 6 4 0 16 -9 28 -21z m-109 -25 c11 -30 -8 -80 -34
-95 -12 -6 -76 -13 -143 -16 -172 -7 -216 12 -229 93 l-7 40 202 0 c200 0 203
0 211 -22z"/>
<path d="M1335 886 c-19 -28 -14 -53 10 -62 24 -9 56 25 53 55 -4 37 -41 40
-63 7z"/>
<path d="M770 1361 c-123 -38 -186 -143 -160 -267 23 -109 138 -188 247 -169
87 14 162 83 184 167 10 37 10 58 0 105 -11 48 -21 66 -61 105 -63 61 -136 81
-210 59z m108 -23 c63 -16 124 -78 141 -143 18 -72 0 -136 -54 -191 -126 -125
-338 -37 -338 140 0 99 59 173 158 197 43 10 42 10 93 -3z"/>
<path d="M810 1242 c-70 -35 -97 -137 -51 -186 14 -14 32 -26 40 -26 34 0 83
41 103 86 42 96 -10 168 -92 126z m48 -54 c-3 -25 -17 -32 -37 -19 -19 12 -6
41 19 41 16 0 21 -5 18 -22z"/>
<path d="M490 1481 c-16 -32 7 -71 42 -71 40 0 59 41 33 70 -23 25 -61 26 -75
1z"/>
</g>
</svg>
