<?xml version="1.0" standalone="no"?>
<!DOCTYPE svg PUBLIC "-//W3C//DTD SVG 20010904//EN"
 "http://www.w3.org/TR/2001/REC-SVG-20010904/DTD/svg10.dtd">
<svg version="1.0" xmlns="http://www.w3.org/2000/svg"
 width="720.000000pt" height="1280.000000pt" viewBox="0 0 720.000000 1280.000000"
 preserveAspectRatio="xMidYMid meet">
<metadata>
Created by potrace 1.16, written by Peter Selinger 2001-2019
</metadata>
<g transform="translate(0.000000,1280.000000) scale(0.100000,-0.100000)"
fill="#000000" stroke="none">
<path d="M0 11250 c0 -34 4 -59 8 -56 4 3 19 -13 32 -35 14 -21 33 -42 42 -45
10 -3 18 -11 18 -19 0 -7 6 -15 14 -18 22 -9 129 -147 168 -217 20 -36 53
-110 73 -165 21 -55 41 -105 46 -110 16 -20 69 -178 57 -167 -7 6 19 -56 59
-136 40 -81 75 -162 79 -179 7 -38 14 -40 39 -14 16 19 16 21 -3 48 -42 60
-136 280 -209 487 -40 115 -108 254 -164 336 -21 31 -39 61 -39 65 0 10 -92
133 -162 218 l-58 69 0 -62z"/>
<path d="M0 11142 c0 -33 4 -39 133 -202 107 -135 156 -204 174 -241 11 -24
31 -64 42 -89 12 -25 19 -36 15 -25 -4 11 -13 42 -20 68 -19 71 -97 210 -172
311 -37 49 -71 96 -77 104 -17 27 -33 42 -44 42 -6 0 -11 3 -11 8 0 4 -9 18
-20 32 l-20 25 0 -33z"/>
<path d="M0 10816 c0 -30 7 -52 22 -71 12 -16 23 -41 24 -56 2 -31 69 -137
206 -327 104 -145 150 -218 153 -247 4 -32 4 -33 20 -39 13 -4 13 -2 5 14 -21
40 -8 32 58 -33 l69 -68 17 26 c20 31 14 44 -10 24 -15 -12 -21 -9 -51 26 -76
86 -106 132 -274 418 -35 59 -76 127 -91 152 -43 71 0 44 67 -42 31 -40 58
-73 60 -73 10 0 -88 130 -135 180 -28 30 -70 79 -92 108 -22 28 -42 52 -44 52
-2 0 -4 -20 -4 -44z"/>
<path d="M6994 10704 c-112 -88 -188 -134 -223 -134 -20 0 -35 -13 -25 -22 7
-8 86 21 105 38 8 8 20 14 26 14 8 0 88 63 203 161 71 60 20 26 -86 -57z"/>
<path d="M7183 10573 c-7 -3 -13 -18 -13 -34 0 -17 -4 -28 -9 -24 -6 3 -19 -4
-29 -16 -12 -12 -34 -21 -55 -22 -32 -2 -58 -17 -126 -73 -42 -34 -67 -44
-110 -44 -36 0 -41 -3 -47 -27 -4 -14 -1 -41 5 -60 7 -18 12 -53 11 -76 -3
-82 -4 -81 38 -48 20 17 61 48 91 70 61 45 181 159 181 172 0 5 5 9 10 9 6 0
18 8 29 19 10 10 24 20 30 22 8 3 11 26 9 70 -2 47 -7 65 -15 62z"/>
<path d="M376 10547 c3 -10 9 -15 12 -12 3 3 0 11 -7 18 -10 9 -11 8 -5 -6z"/>
<path d="M6614 10010 c-99 -78 -216 -169 -261 -203 -46 -34 -83 -65 -83 -68 0
-4 14 -12 31 -18 l31 -11 -7 -127 c-4 -70 -9 -143 -10 -162 -2 -20 -6 -101
-10 -181 -3 -80 -11 -181 -16 -225 -6 -44 -10 -92 -9 -107 0 -16 -4 -28 -9
-28 -10 0 -24 -38 -22 -60 2 -12 0 -13 -7 -1 -6 7 -15 10 -22 6 -6 -4 -19 0
-28 8 -20 17 -73 29 -89 19 -6 -4 -13 -16 -16 -27 -4 -18 -5 -18 -6 3 -1 22
-2 22 -26 6 -14 -9 -28 -27 -31 -40 -3 -13 -10 -24 -14 -24 -5 0 -12 -10 -16
-22 -9 -30 -29 -48 -53 -48 -13 0 -19 -5 -15 -14 4 -10 -2 -16 -18 -18 -17 -2
-22 -8 -20 -25 2 -14 -4 -26 -17 -33 -12 -6 -21 -17 -21 -25 0 -19 -26 -31
-72 -34 -28 -1 -38 2 -38 14 0 8 -5 15 -10 15 -6 0 -9 3 -8 8 5 20 -16 152
-31 192 -13 35 -15 56 -8 95 9 54 10 202 1 216 -3 5 -18 9 -34 9 -63 0 -87
-85 -58 -209 10 -46 9 -57 -11 -106 -20 -48 -22 -67 -18 -148 3 -50 9 -109 13
-129 4 -28 1 -48 -15 -78 -27 -52 -29 -87 -6 -130 23 -43 24 -60 7 -82 -9 -10
-15 -52 -17 -112 -3 -72 -9 -106 -25 -137 -18 -34 -21 -53 -16 -103 19 -214
19 -229 2 -242 -15 -11 -13 -19 27 -80 69 -107 96 -166 157 -339 l56 -160 80
-8 c43 -4 122 -11 175 -16 96 -9 134 -22 144 -50 13 -33 -18 -42 -179 -48 -86
-3 -159 -10 -162 -14 -2 -5 21 -72 53 -151 l58 -143 120 -6 c165 -8 159 -4
151 -102 -4 -44 -11 -88 -17 -99 -13 -24 -67 -48 -109 -48 -22 0 -30 -5 -30
-17 1 -10 26 -79 56 -153 51 -125 141 -358 150 -387 2 -7 18 -13 37 -13 18 0
41 -6 51 -13 25 -18 33 -97 13 -128 -14 -22 -13 -31 4 -99 19 -72 18 -130 -2
-130 -16 0 -10 -29 20 -88 16 -32 43 -107 61 -167 25 -89 37 -115 61 -135 19
-16 39 -50 54 -93 30 -82 31 -91 5 -117 -23 -23 -88 -27 -122 -9 -18 10 -27 5
-71 -40 -49 -50 -54 -61 -17 -41 27 14 64 -38 51 -72 -7 -21 -2 -27 53 -64 72
-48 77 -55 100 -113 16 -40 16 -45 1 -53 -12 -8 -14 -19 -9 -61 8 -66 19 -87
45 -87 35 0 37 31 4 76 -14 19 -14 23 7 49 20 26 25 27 78 22 48 -4 75 -16
185 -83 119 -72 130 -82 133 -111 5 -50 -18 -57 -182 -50 -89 3 -157 11 -184
21 -38 14 -50 14 -103 2 -33 -8 -62 -15 -64 -15 -3 -1 -63 -1 -134 -1 l-128 0
-18 -73 c-24 -103 -47 -149 -102 -208 -114 -122 -316 -215 -491 -227 -58 -3
-80 -8 -74 -16 5 -6 21 -45 37 -86 15 -41 36 -94 46 -117 11 -23 19 -45 19
-48 0 -4 6 -21 14 -38 22 -48 151 -447 187 -577 17 -63 62 -218 99 -345 159
-536 191 -670 249 -1035 41 -256 101 -761 148 -1237 l18 -183 442 0 443 0 -2
2171 -3 2171 -151 78 c-202 104 -204 105 -204 145 0 27 -7 38 -32 56 -76 52
-168 142 -187 183 -25 51 -27 123 -5 155 26 37 69 23 328 -109 130 -66 241
-120 246 -120 6 0 10 33 10 78 l0 77 -173 69 c-94 38 -228 91 -295 117 -68 26
-135 57 -148 70 -57 53 -70 175 -24 224 28 30 61 36 150 24 82 -10 128 -25
243 -81 71 -35 168 -77 225 -99 20 -8 22 -6 22 27 0 29 -3 35 -16 30 -17 -7
-83 21 -85 35 -1 5 -2 15 -3 22 -3 21 37 56 72 63 l32 6 0 515 0 515 -32 -31
c-17 -17 -41 -32 -52 -33 -90 -6 -111 17 -111 125 -1 65 -6 91 -23 125 -21 39
-23 53 -19 170 5 153 1 189 -24 197 -31 10 -244 14 -259 5 -10 -6 -14 -35 -16
-112 -2 -87 1 -109 19 -144 18 -37 19 -47 9 -82 -7 -22 -20 -42 -28 -44 -19
-4 -62 -135 -71 -214 -5 -48 -3 -54 31 -91 66 -74 87 -167 44 -197 -12 -9 -35
-16 -51 -16 -33 0 -90 25 -108 46 -16 20 -51 272 -42 309 4 17 8 36 9 43 1 7
-9 20 -22 28 -36 24 -33 72 7 107 28 24 31 32 26 65 -3 21 0 54 8 77 14 39 14
40 -15 63 -41 32 -56 83 -36 123 21 42 20 56 -4 69 -45 24 -9 112 51 125 24 5
44 0 90 -24 l60 -31 125 21 c83 13 177 21 279 22 l155 2 -1 1492 0 1493 -30
-28 c-24 -21 -27 -28 -15 -30 11 -2 16 -15 17 -40 8 -381 7 -807 -2 -818 -6
-7 -11 -28 -12 -47 -2 -27 -6 -33 -20 -29 -9 2 -24 -1 -33 -9 -23 -19 -73 -21
-97 -4 -30 21 -35 19 -40 -12 -2 -16 -3 20 -3 80 1 59 -2 107 -6 107 -9 0 -11
445 -2 488 10 51 24 37 25 -25 l1 -58 9 40 c6 22 8 68 7 103 l-3 63 -42 -27
c-38 -25 -41 -31 -35 -58 3 -17 6 -221 7 -452 0 -408 -1 -423 -20 -445 -11
-12 -15 -19 -9 -16 7 4 17 1 22 -6 9 -10 4 -12 -23 -9 -27 3 -35 1 -35 -12 0
-19 -26 -22 -33 -3 -3 6 -6 0 -6 -15 -1 -15 -5 -29 -9 -32 -11 -6 -23 284 -20
484 1 102 3 127 7 85 l7 -60 8 77 c10 97 14 578 4 578 -4 0 -11 -19 -17 -42
-8 -35 -10 -18 -7 85 2 70 3 127 1 127 -1 0 -83 -63 -181 -140z m-174 -300 c0
-5 -4 -10 -10 -10 -5 0 -10 5 -10 10 0 6 5 10 10 10 6 0 10 -4 10 -10z m-13
-102 c-2 -18 -4 -6 -4 27 0 33 2 48 4 33 2 -15 2 -42 0 -60z m749 -750 c-3
-24 -5 -51 -5 -60 -1 -9 -11 -20 -23 -24 -13 -4 -34 -19 -46 -35 -15 -17 -30
-25 -40 -22 -10 4 -13 2 -8 -5 4 -7 -9 -19 -34 -32 -22 -11 -40 -18 -40 -14 0
4 -7 1 -15 -6 -9 -7 -18 -10 -21 -7 -6 6 -16 -1 -50 -31 -22 -20 -44 -8 -38
22 3 17 -2 29 -13 36 -13 8 -14 13 -5 16 6 3 12 10 12 16 0 13 24 36 41 38 31
5 38 -2 41 -37 4 -37 4 -37 12 14 5 29 11 52 15 51 19 -2 31 4 29 15 -2 6 9
13 24 15 14 2 38 14 51 28 15 15 31 22 41 18 11 -4 16 -1 16 11 0 11 5 15 15
11 9 -3 18 1 21 9 13 32 26 14 20 -27z m-1009 -40 c-3 -8 -6 -5 -6 6 -1 11 2
17 5 13 3 -3 4 -12 1 -19z m-288 -1605 c30 -26 38 -39 29 -45 -10 -5 -8 -8 5
-8 30 0 19 -17 -26 -39 -50 -24 -76 -26 -102 -8 -33 25 0 134 42 136 6 1 30
-16 52 -36z m1184 -1457 c9 -4 20 -20 24 -35 3 -14 12 -35 20 -47 26 -40 -4
-49 -151 -48 -326 3 -314 2 -337 25 -16 16 -20 28 -15 52 9 45 29 60 83 67 64
7 354 -3 376 -14z"/>
<path d="M7087 8821 c3 -12 9 -21 14 -21 14 0 11 16 -5 29 -12 10 -13 8 -9 -8z"/>
<path d="M7026 9925 c-3 -9 -6 -22 -5 -28 0 -7 5 -1 10 12 5 13 8 26 5 28 -2
2 -6 -3 -10 -12z"/>
<path d="M2831 9877 c-14 -7 -33 -35 -47 -69 -13 -32 -34 -73 -45 -90 l-21
-33 6 45 c3 25 8 55 11 65 3 11 -2 5 -10 -13 -16 -35 -60 -201 -71 -267 -15
-94 -19 -156 -13 -167 4 -7 3 -21 -3 -32 -9 -16 -10 -57 -6 -176 1 -8 6 -18
12 -22 7 -5 7 -8 -2 -8 -10 0 -12 -12 -7 -47 3 -27 7 -96 9 -154 2 -58 9 -128
15 -155 6 -27 18 -78 25 -114 26 -118 35 -145 76 -220 22 -41 48 -92 58 -112
10 -23 22 -36 30 -33 7 3 10 1 7 -5 -3 -5 4 -14 15 -20 11 -6 20 -17 20 -25 0
-8 5 -15 11 -15 6 0 8 -7 5 -16 -3 -8 -2 -12 4 -9 9 5 11 0 10 -20 -1 -3 14
-21 33 -39 19 -18 42 -47 53 -64 10 -18 22 -32 26 -32 4 0 8 -11 8 -25 0 -18
-5 -25 -20 -25 -14 0 -18 5 -13 17 5 13 2 15 -11 10 -11 -4 -15 -3 -11 4 5 6
-9 9 -39 8 -29 -2 -45 -7 -42 -14 2 -6 -2 -19 -10 -30 -14 -18 -10 -61 7 -79
5 -6 9 -19 9 -30 0 -11 13 -42 28 -70 16 -28 27 -55 26 -61 -2 -5 7 -23 21
-39 14 -16 25 -32 25 -36 0 -13 79 -50 117 -55 174 -22 226 -24 247 -10 25 17
275 26 314 12 19 -7 22 -5 22 15 0 14 -8 27 -22 33 -11 6 -28 21 -37 35 -15
23 -15 24 1 12 20 -16 44 -6 30 11 -5 7 -7 29 -5 50 4 27 10 37 23 37 10 0 20
9 23 21 3 12 10 18 16 15 19 -12 51 -117 51 -167 0 -39 3 -50 14 -46 24 9 139
100 186 148 59 59 154 145 209 189 75 60 235 207 261 241 14 17 37 46 51 63
51 62 89 125 156 262 l68 139 0 140 c0 139 0 141 -34 210 -27 56 -56 92 -146
181 -62 62 -133 125 -157 141 -241 165 -456 198 -677 107 -48 -19 -93 -37
-101 -39 -8 -2 -15 -4 -15 -5 0 -1 -11 -2 -25 -4 -14 -1 -46 -15 -70 -31 -25
-17 -57 -36 -71 -43 -14 -8 -39 -25 -54 -38 -15 -13 -31 -24 -35 -24 -4 0 -16
-8 -28 -17 -11 -10 -48 -38 -81 -62 -34 -24 -61 -47 -61 -52 0 -5 -6 -9 -13
-9 -15 0 -107 -81 -107 -93 0 -5 -13 -22 -30 -40 -48 -51 -59 -85 -60 -183 -2
-124 12 -183 70 -301 52 -106 63 -143 31 -102 -34 44 -61 108 -121 286 -70
210 -74 234 -96 553 -16 231 -15 480 2 608 3 23 4 42 2 42 -1 0 -14 -6 -27
-13z m-184 -679 c-3 -8 -6 -5 -6 6 -1 11 2 17 5 13 3 -3 4 -12 1 -19z m1380
-40 c40 -6 70 -14 68 -18 -2 -4 -48 -8 -102 -8 -54 -1 -132 -5 -174 -8 -87 -7
-143 9 -72 20 22 4 56 9 77 11 21 2 39 5 41 7 8 8 95 6 162 -4z m502 -448 c24
-11 41 -23 38 -26 -3 -3 -13 0 -24 5 -10 6 -36 18 -58 25 -23 9 -31 15 -20 15
11 0 40 -8 64 -19z m-554 -60 c4 -6 -14 -10 -47 -10 -38 0 -49 3 -38 10 20 13
77 13 85 0z m675 0 c12 -8 9 -10 -11 -10 -21 0 -28 -7 -38 -40 -6 -21 -16 -42
-22 -45 -5 -4 -3 10 5 30 9 21 16 46 16 56 0 21 25 25 50 9z m-1390 -4 c0 -13
-107 -66 -133 -65 l-32 1 35 7 c20 4 56 19 80 34 47 28 50 29 50 23z m810
-142 c90 -84 125 -99 230 -99 74 0 92 4 144 30 32 16 74 48 93 70 20 22 30 30
24 18 -18 -36 -91 -92 -150 -114 -101 -39 -294 -19 -352 37 -32 31 -67 100
-75 147 l-5 32 13 -30 c7 -17 42 -58 78 -91z m-315 -1 c-20 -53 -66 -108 -107
-129 -47 -24 -130 -34 -204 -23 -79 11 -136 36 -184 79 -32 30 -31 29 18 -5
69 -49 127 -65 231 -65 77 0 91 3 138 30 60 34 101 95 111 163 5 30 7 35 10
18 2 -13 -4 -44 -13 -68z m193 35 c9 -18 34 -50 55 -72 20 -21 37 -48 37 -59
0 -22 45 -123 58 -131 13 -8 7 -47 -9 -57 -19 -12 -89 -11 -89 1 0 6 -9 10
-20 10 -11 0 -33 12 -50 28 -25 22 -33 39 -40 92 -9 58 -4 193 7 213 10 17 35
5 51 -25z m168 -438 c4 -13 6 -13 14 0 8 12 10 9 10 -11 0 -20 -13 -36 -53
-67 -48 -37 -95 -62 -117 -62 -15 0 11 53 46 90 17 19 30 40 27 46 -2 6 11 24
29 39 l33 28 3 -24 c2 -13 5 -31 8 -39z m-268 -287 c37 -37 39 -66 6 -71 -26
-4 -84 62 -84 94 0 31 35 21 78 -23z"/>
<path d="M557 9730 c3 -11 9 -18 13 -15 4 3 10 -9 14 -25 5 -28 29 -44 25 -17
-1 6 -1 22 0 34 1 21 3 21 184 18 100 -2 198 -9 217 -14 47 -15 50 -14 50 7 0
17 -13 19 -157 25 -87 4 -201 7 -255 7 -91 0 -96 -1 -91 -20z"/>
<path d="M752 9604 c2 -111 2 -113 5 -29 l4 90 77 -3 c42 -1 90 -7 106 -12 43
-15 46 -13 46 25 l0 35 -59 0 c-32 0 -86 3 -120 6 l-61 7 2 -119z"/>
<path d="M6983 9640 c0 -25 2 -35 4 -22 2 12 2 32 0 45 -2 12 -4 2 -4 -23z"/>
<path d="M750 9435 c0 -35 3 -43 15 -39 8 4 15 10 15 15 0 6 8 6 19 0 22 -12
31 -5 31 25 0 18 -7 25 -27 30 -16 3 -34 7 -40 10 -9 2 -13 -10 -13 -41z"/>
<path d="M850 9436 c0 -27 15 -42 25 -26 9 15 25 12 25 -5 0 -8 5 -15 10 -15
6 0 10 11 10 24 0 14 5 28 10 31 6 3 10 -2 10 -13 0 -24 8 -32 26 -25 8 3 14
16 14 29 0 23 -3 24 -65 24 -62 0 -65 -1 -65 -24z"/>
<path d="M0 9315 c0 -53 1 -56 29 -61 19 -4 68 -43 136 -107 59 -56 127 -117
151 -137 l44 -35 0 -68 c0 -43 4 -66 10 -62 6 3 10 24 10 46 0 34 3 39 24 39
25 0 87 -44 123 -88 16 -19 23 -40 23 -70 0 -24 4 -41 9 -38 5 3 7 29 4 57 -3
34 -1 54 7 59 8 5 -6 16 -36 31 -35 17 -118 92 -285 256 -129 128 -238 233
-242 233 -4 0 -7 -25 -7 -55z"/>
<path d="M6109 9293 c-5 -30 9 -93 20 -93 12 0 23 63 15 84 -6 16 -33 23 -35
9z"/>
<path d="M6051 9264 c0 -11 3 -14 6 -6 3 7 2 16 -1 19 -3 4 -6 -2 -5 -13z"/>
<path d="M741 9188 c0 -40 3 -66 7 -58 12 25 32 22 32 -5 0 -14 -5 -25 -11
-25 -6 0 -3 -7 6 -16 13 -14 16 -38 14 -136 -1 -65 1 -122 5 -125 3 -4 6 66 6
154 0 89 4 163 9 165 4 2 11 26 15 54 6 48 5 52 -16 58 -64 17 -68 12 -67 -66z"/>
<path d="M861 9198 c1 -29 4 -41 6 -25 6 36 23 35 23 -3 0 -16 4 -30 10 -30 6
0 11 -66 13 -162 2 -153 3 -150 5 55 l2 217 -30 0 c-30 0 -30 -1 -29 -52z"/>
<path d="M574 9110 c0 -69 1 -97 3 -62 2 34 2 90 0 125 -2 34 -3 6 -3 -63z"/>
<path d="M742 9090 c0 -14 2 -19 5 -12 2 6 2 18 0 25 -3 6 -5 1 -5 -13z"/>
<path d="M1420 9030 c0 -12 105 -43 128 -37 12 3 8 8 -18 19 -44 19 -110 30
-110 18z"/>
<path d="M5230 8897 c-40 -18 -51 -38 -44 -77 3 -19 6 -40 6 -47 2 -17 46 2
69 30 19 23 23 47 13 85 -7 25 -9 25 -44 9z"/>
<path d="M364 8733 c11 -45 11 -46 14 -14 4 36 -3 61 -16 61 -5 0 -4 -21 2
-47z"/>
<path d="M543 8678 c4 -24 9 -99 13 -168 4 -69 8 -136 10 -150 1 -14 3 -58 3
-99 2 -145 13 -59 24 186 l12 248 73 3 72 3 0 -28 c0 -15 4 -33 8 -39 4 -6 50
-13 105 -16 l98 -5 15 28 c8 16 19 29 25 29 6 0 7 5 4 10 -3 6 -31 10 -61 10
-30 0 -96 4 -147 9 -51 6 -130 13 -176 16 l-84 7 6 -44z"/>
<path d="M5238 8608 c-15 -13 -30 -87 -48 -236 -4 -34 -15 -71 -24 -81 -9 -9
-16 -23 -16 -29 0 -7 -7 -12 -15 -12 -8 0 -14 -3 -14 -7 4 -26 -14 -39 -78
-58 -17 -5 -22 -1 -25 17 -3 21 -5 19 -20 -13 -24 -50 -15 -94 18 -94 13 0 24
3 24 8 0 4 29 7 65 7 58 0 65 -2 65 -19 0 -11 -5 -23 -10 -26 -12 -7 -9 -107
3 -116 4 -3 10 -23 12 -44 3 -22 10 -44 15 -49 33 -33 -15 -34 -63 -2 -19 13
-38 22 -41 18 -3 -3 -6 0 -6 6 0 7 -8 12 -17 12 -15 0 -15 -2 2 -14 11 -7 72
-41 136 -74 l115 -61 -1 192 c-1 106 -5 204 -9 219 -4 19 2 44 19 82 25 55 25
57 8 87 -10 17 -24 42 -31 55 -7 12 -14 60 -16 106 -3 46 -5 89 -5 96 -1 6 -8
12 -17 12 -10 0 -14 6 -10 15 7 18 4 19 -16 3z"/>
<path d="M756 8374 c-4 -9 -3 -39 0 -65 5 -41 9 -47 20 -38 8 7 22 27 31 46
15 32 19 34 52 29 81 -12 85 -11 89 6 5 25 -35 38 -118 38 -53 0 -69 -3 -74
-16z"/>
<path d="M1470 8235 c-13 -36 -13 -37 21 -63 34 -28 42 -18 37 44 -2 32 -7 40
-25 42 -17 3 -26 -3 -33 -23z"/>
<path d="M1500 8015 c-11 -13 -11 -20 0 -40 18 -34 27 -31 25 10 -1 42 -8 50
-25 30z"/>
<path d="M2278 8007 c-27 -10 -139 -90 -158 -111 -8 -10 17 -2 61 19 110 52
142 46 178 -36 18 -39 20 -72 22 -309 3 -210 0 -287 -14 -370 -9 -58 -21 -166
-27 -240 -12 -154 -22 -197 -50 -230 -20 -23 -24 -34 -21 -57 1 -7 -3 -23 -10
-35 -11 -21 -12 -20 -26 13 -31 71 -103 374 -103 435 0 13 -5 24 -11 24 -20 0
-3 -239 26 -375 60 -278 81 -492 70 -716 -5 -91 -3 -162 5 -210 12 -73 12 -75
83 -143 57 -55 71 -75 68 -95 -5 -39 -29 -68 -69 -84 -48 -18 -149 -20 -187
-3 -16 8 -57 26 -90 41 -86 38 -189 88 -195 95 -13 13 -52 30 -59 25 -5 -3 -6
5 -3 17 5 22 5 22 -11 6 -9 -9 -17 -24 -17 -32 0 -18 64 -85 158 -164 89 -76
82 -93 -38 -107 -36 -4 -76 -11 -89 -16 -20 -8 -21 -12 -10 -25 16 -19 39 -16
173 20 109 29 170 32 346 15 121 -11 158 -22 142 -42 -5 -7 -12 -21 -14 -32
-3 -11 -9 -28 -13 -38 -7 -18 -4 -18 61 -11 90 10 142 8 160 -7 18 -15 18 -30
0 -23 -17 7 -29 -117 -12 -129 6 -4 36 -14 66 -23 197 -55 232 -67 264 -94 12
-10 51 -17 115 -22 119 -8 157 -19 211 -62 43 -34 43 -34 44 -102 2 -73 26
-139 69 -184 17 -20 18 -23 4 -17 -36 14 -99 -81 -150 -221 -25 -70 -31 -105
-33 -182 -4 -144 29 -284 79 -339 19 -21 19 -23 4 -18 -10 4 -22 7 -26 7 -4 0
-13 11 -19 25 -7 16 -20 25 -34 25 -32 1 -51 18 -76 66 -11 22 -28 46 -36 53
-9 8 -16 19 -16 25 0 7 -19 23 -42 36 -24 12 -51 29 -60 37 -12 10 -22 12 -34
5 -19 -11 -56 -4 -48 9 3 5 -2 9 -10 9 -13 0 -16 -12 -16 -61 0 -38 -6 -71
-16 -88 -17 -28 -62 -51 -102 -51 -11 0 -23 -4 -26 -9 -3 -5 -14 -7 -25 -4
-11 3 -21 -2 -24 -11 -11 -29 -84 -11 -116 28 -7 8 -18 13 -25 10 -7 -3 -23 1
-37 8 -24 12 -29 18 -29 36 0 4 -5 -1 -11 -10 -7 -13 -15 -15 -32 -9 -16 7
-33 3 -65 -16 -35 -20 -58 -25 -115 -26 -40 0 -76 -5 -80 -11 -6 -8 -10 -7
-14 2 -2 7 -20 31 -39 53 -19 23 -32 44 -29 49 3 4 -2 13 -10 20 -8 7 -15 19
-15 27 0 7 -7 16 -15 19 -8 4 -12 10 -9 15 3 5 1 9 -3 9 -5 0 -19 22 -32 49
-26 56 -46 69 -61 41 -6 -11 -15 -20 -21 -20 -14 0 -39 -26 -39 -40 0 -7 -8
-10 -20 -7 -12 3 -20 0 -20 -8 0 -17 -44 -45 -70 -45 -11 0 -31 -6 -43 -14
-12 -8 -35 -17 -51 -19 -17 -2 -32 -9 -34 -17 -3 -7 0 -10 7 -6 16 10 14 -3
-3 -20 -19 -18 -26 -18 -26 1 0 13 -4 14 -21 4 -13 -7 -46 -9 -81 -6 -51 4
-71 12 -129 52 -38 26 -95 75 -125 109 -98 108 -132 180 -228 486 -62 198 -58
193 -134 137 -78 -57 -119 -71 -186 -62 -51 6 -54 5 -80 -25 -32 -38 -32 -47
-5 -55 20 -7 17 -11 -32 -62 -78 -79 -306 -285 -341 -307 -26 -17 -46 -19
-139 -17 l-109 2 0 -2120 0 -2121 859 0 859 0 6 73 c3 39 8 110 11 157 12 219
35 477 65 720 11 91 20 184 20 208 0 39 -1 41 -19 30 -11 -6 -17 -18 -13 -26
3 -10 1 -13 -6 -8 -15 9 -26 -12 -13 -28 8 -10 7 -17 -4 -26 -14 -11 -19 -7
-16 12 4 33 12 93 16 143 4 33 10 83 15 110 5 28 16 97 25 155 8 58 21 148 29
200 8 52 19 138 25 190 7 52 14 112 17 133 3 20 2 37 -3 37 -11 0 -37 -135
-82 -420 -11 -69 -30 -181 -42 -250 -12 -69 -25 -148 -29 -177 -5 -29 -15 -66
-23 -82 -11 -22 -12 -31 -3 -34 8 -3 8 -10 -1 -26 -7 -11 -13 -40 -13 -63 0
-29 -3 -38 -9 -29 -5 7 -14 10 -20 7 -6 -4 -9 -12 -5 -17 3 -6 -2 -17 -12 -24
-18 -13 -18 -14 2 -9 18 5 20 2 16 -30 -2 -21 -10 -36 -18 -36 -21 0 -26 -17
-9 -33 20 -21 19 -27 -5 -27 -18 0 -19 7 -19 118 0 177 0 182 -12 182 -5 0 -8
-4 -5 -9 3 -5 2 -22 -4 -37 -5 -16 -12 -56 -15 -89 -3 -33 -10 -98 -15 -145
-6 -47 -10 -97 -10 -112 0 -20 -5 -28 -17 -29 -11 0 -13 -3 -5 -6 17 -7 15
-20 -9 -44 -14 -14 -18 -24 -11 -31 6 -6 8 -17 5 -24 -6 -16 -33 -19 -33 -4 0
6 -6 10 -14 10 -17 0 -29 -27 -16 -35 6 -4 10 -11 10 -17 0 -6 -3 -9 -6 -5 -3
3 -17 -6 -30 -21 -29 -34 -29 -37 -9 163 35 350 65 542 131 860 34 161 130
551 159 650 92 308 131 432 185 595 34 102 65 188 69 193 10 10 -46 -214 -59
-235 -5 -10 -10 -28 -10 -40 1 -17 7 -9 25 27 14 28 25 57 25 65 0 9 4 20 10
26 9 9 58 135 83 214 6 19 17 41 24 48 7 8 10 19 6 25 -3 7 -3 9 1 5 19 -17
76 76 143 232 28 64 32 75 44 115 16 57 33 70 24 20 -69 -380 -70 -385 -55
-363 6 9 24 67 40 129 41 157 93 319 102 319 10 0 2 -115 -18 -245 -19 -124
-28 -215 -21 -215 7 0 29 78 57 205 23 103 57 239 67 265 4 11 7 9 14 -9 6
-15 2 -75 -10 -174 -19 -142 -21 -200 -6 -125 4 18 15 62 25 98 10 36 23 86
30 112 17 64 31 51 25 -22 -2 -33 0 -71 5 -84 5 -14 11 -42 14 -63 3 -21 8
-47 10 -58 2 -11 5 -47 5 -81 1 -50 5 -66 25 -87 22 -24 24 -32 19 -99 -8
-108 8 -82 29 47 65 402 94 523 125 533 11 3 29 -45 36 -98 3 -21 7 -16 29 32
28 60 62 89 82 68 27 -27 7 -365 -50 -814 -13 -109 -23 -200 -21 -202 4 -4 17
72 62 356 22 141 43 290 75 549 12 93 27 130 47 110 14 -14 35 13 85 113 l44
86 -50 -20 c-83 -33 -238 -77 -225 -64 3 3 50 22 104 41 55 19 125 51 156 70
59 36 79 42 79 25 0 -5 7 -10 15 -10 9 0 15 -10 16 -22 0 -13 3 -34 5 -48 3
-14 9 -110 13 -215 13 -293 23 -422 31 -400 4 11 18 157 30 325 13 168 24 306
25 308 1 1 28 -11 61 -28 74 -37 182 -60 282 -59 87 1 76 7 -58 34 -108 22
-160 43 -160 65 0 14 7 17 38 15 157 -12 329 -14 342 -5 8 5 11 10 6 10 -5 0
-3 7 4 15 11 13 8 15 -18 15 -18 0 -32 -6 -36 -16 -5 -14 -17 -16 -79 -10 -95
10 -111 26 -26 27 l64 1 -100 24 c-124 30 -253 94 -360 177 -82 64 -92 79 -80
124 6 24 9 25 55 21 32 -3 61 -14 82 -30 37 -28 132 -78 148 -78 6 0 19 8 28
17 16 16 17 15 20 -19 3 -31 8 -38 34 -47 46 -16 57 -14 64 17 4 15 14 35 23
44 9 9 22 24 29 33 15 18 71 19 92 2 18 -15 60 -98 60 -120 0 -20 51 -31 149
-32 51 0 76 4 78 13 6 16 40 16 49 0 5 -7 13 -42 20 -78 l12 -65 1 67 c1 80
14 93 50 49 28 -34 41 -39 41 -16 0 28 23 65 41 65 10 0 25 -7 34 -16 9 -9 30
-18 47 -20 35 -4 78 -29 78 -44 0 -6 5 -10 10 -10 6 0 10 11 10 25 0 17 5 25
18 25 21 0 62 -26 80 -52 7 -10 18 -16 24 -12 17 10 77 -28 89 -58 12 -30 29
-29 29 3 0 10 4 19 9 19 10 0 96 -91 102 -109 3 -9 15 -10 46 -3 34 8 45 7 55
-5 19 -23 141 -75 165 -70 13 2 40 -7 65 -24 44 -30 91 -38 104 -18 3 6 19 9
35 5 15 -3 31 -1 34 4 3 6 16 10 28 11 12 0 40 9 62 18 l40 18 -45 13 c-71 19
-161 63 -241 117 -41 28 -114 72 -164 99 -110 59 -215 125 -233 147 -21 25 -5
39 26 23 15 -8 52 -15 82 -17 30 -1 63 -7 72 -13 28 -17 117 10 149 45 15 17
25 37 22 45 -3 8 -1 14 4 14 5 0 8 12 7 28 0 15 5 36 12 47 19 26 18 45 -3 60
-15 11 -16 15 -3 30 14 17 13 17 -10 9 -14 -5 -56 -9 -95 -9 -54 0 -69 3 -67
14 2 10 -3 12 -20 7 -50 -14 -128 -19 -128 -7 0 6 13 11 29 11 16 0 58 9 94
20 71 22 157 91 157 126 0 16 -2 16 -10 4 -8 -13 -11 -13 -23 0 -8 8 -22 39
-32 67 -9 29 -27 61 -40 71 -37 29 -272 75 -470 93 -55 5 -120 14 -145 20 -39
9 -115 23 -258 46 -38 6 -46 16 -38 48 5 21 10 23 61 18 51 -5 113 10 167 38
27 14 69 11 130 -11 101 -35 424 -50 443 -20 13 20 -137 71 -250 85 -40 5
-421 -7 -559 -18 -37 -3 -56 24 -38 53 11 18 9 25 -17 57 -32 39 -69 67 -118
88 -18 8 -33 19 -33 26 0 6 -24 42 -53 78 -85 106 -131 172 -160 231 -33 67
-63 107 -73 97 -4 -4 -2 -19 5 -33 7 -17 8 -31 3 -36 -6 -6 -6 -23 0 -46 7
-26 7 -37 -1 -40 -15 -5 -14 -27 3 -42 8 -6 16 -23 18 -38 2 -15 12 -31 25
-38 18 -8 20 -13 10 -23 -7 -7 -7 -12 -2 -11 21 4 36 0 30 -9 -3 -6 1 -13 9
-18 8 -4 31 -23 51 -42 20 -18 42 -34 48 -35 7 -1 28 -12 47 -24 l35 -22 -45
0 c-27 0 -58 -8 -77 -20 -37 -22 -41 -43 -19 -125 8 -27 12 -52 11 -53 -2 -2
-31 6 -64 19 -72 26 -174 23 -231 -6 -19 -9 -30 -12 -23 -5 14 15 6 40 -12 40
-7 0 -15 5 -17 10 -3 10 -70 21 -143 24 -16 0 -37 5 -45 10 -8 5 -11 5 -7 1
13 -15 -85 -38 -153 -37 -75 2 -107 11 -207 54 -68 29 -149 151 -195 292 -30
94 -49 248 -46 386 1 69 -1 199 -6 290 -7 154 -6 181 23 397 19 144 31 275 31
346 0 62 6 183 14 268 8 85 20 235 27 334 7 114 16 186 24 195 18 21 34 86 28
110 -3 11 -14 20 -24 20 -10 0 -21 5 -24 10 -3 6 -1 10 4 10 6 0 11 9 11 20 0
12 -5 17 -13 14 -15 -5 -26 15 -57 106 -35 103 -66 149 -114 170 -44 20 -201
31 -238 17z m1645 -3382 c26 -10 46 -19 44 -21 -1 -1 -26 -4 -55 -5 -39 -2
-57 -8 -67 -22 -11 -15 -20 -17 -59 -12 l-46 7 30 34 c16 19 32 45 36 59 l6
24 32 -23 c17 -13 52 -31 79 -41z m77 -15 c0 -5 -4 -10 -10 -10 -5 0 -10 5
-10 10 0 6 5 10 10 10 6 0 10 -4 10 -10z m73 -136 c131 -37 244 -82 251 -101
4 -9 -1 -24 -10 -34 -25 -28 -93 -33 -176 -15 -85 19 -246 76 -283 100 -21 14
-23 19 -13 41 19 41 104 45 231 9z m-510 -122 c164 -38 171 -39 158 -13 -17
31 9 35 107 15 18 -4 21 -9 16 -28 -7 -27 -11 -26 226 -64 152 -24 203 -43
198 -73 -4 -29 -84 -59 -178 -66 -102 -7 -295 20 -357 51 -27 13 -82 31 -123
39 -84 16 -260 68 -320 95 -41 17 -51 41 -28 66 21 22 150 13 301 -22z m-1918
-442 c8 -13 -5 -13 -25 0 -13 8 -13 10 2 10 9 0 20 -4 23 -10z m575 -28 c0
-11 -37 -32 -44 -25 -15 15 -4 33 19 33 14 0 25 -3 25 -8z m20 -57 c0 -8 -5
-15 -11 -15 -6 0 -17 7 -25 15 -14 13 -13 15 10 15 16 0 26 -6 26 -15z m-15
-143 c-6 -7 -115 50 -115 60 0 4 27 -7 60 -24 34 -17 58 -33 55 -36z m-605
-2901 c0 -6 -4 -11 -10 -11 -5 0 -10 4 -10 9 0 5 -3 18 -7 28 -6 17 -6 17 10
1 9 -9 17 -21 17 -27z m-227 -296 c-3 -9 -8 -14 -10 -11 -3 3 -2 9 2 15 9 16
15 13 8 -4z"/>
<path d="M0 7225 l0 -766 31 17 c17 8 55 18 85 21 46 5 54 9 55 27 0 12 2 30
4 41 3 11 7 121 10 245 7 233 16 300 40 300 30 0 53 -72 60 -190 13 -203 23
-290 36 -290 5 0 9 21 9 48 1 26 5 67 11 92 5 25 12 70 14 100 10 111 15 138
31 186 19 57 63 104 98 104 27 0 30 -15 28 -172 -1 -70 1 -76 21 -82 69 -18
83 1 45 63 -19 29 -23 51 -23 114 0 72 2 80 25 98 14 10 36 22 49 25 33 9 87
-21 104 -60 12 -24 25 -99 27 -148 0 -4 9 -9 19 -13 52 -16 76 -63 135 -256
30 -101 32 -129 10 -170 -13 -26 -14 -39 -4 -81 7 -27 10 -70 7 -95 -2 -25 -1
-60 4 -77 6 -23 5 -47 -6 -82 -8 -27 -15 -64 -15 -82 0 -32 -23 -63 -63 -87
-18 -10 -39 -95 -41 -165 l-1 -35 145 0 145 0 31 95 c17 52 57 176 88 275 32
99 82 241 111 315 29 74 56 146 60 160 4 13 65 140 136 282 115 231 159 323
159 334 0 2 -13 4 -28 4 -15 0 -52 9 -82 19 -59 21 -75 20 -160 -3 -33 -10
-96 -16 -158 -16 -125 0 -156 -12 -171 -68 -6 -20 -11 -42 -11 -49 0 -33 -26
-64 -60 -74 -48 -15 -144 11 -161 42 -15 30 -3 68 26 79 14 5 25 15 25 21 0 6
-7 8 -16 5 -9 -3 -21 -3 -27 1 -7 4 -27 13 -46 20 -30 10 -38 9 -61 -7 -58
-41 -108 -33 -144 23 -16 24 -33 238 -22 281 11 44 68 63 120 41 11 -5 25 -3
35 4 96 70 193 38 177 -59 -4 -25 -2 -49 6 -63 l11 -22 12 28 c8 21 9 40 1 68
-9 35 -8 41 22 78 l31 39 -82 7 c-45 5 -109 6 -142 4 -33 -2 -107 -2 -165 -1
l-105 2 -125 61 c-69 33 -179 92 -245 131 -66 39 -123 73 -127 75 -5 2 -8
-340 -8 -762z m291 511 c111 -34 199 -96 199 -141 0 -29 -40 -75 -65 -75 -25
0 -197 69 -217 87 -33 30 -17 143 19 143 10 0 39 -6 64 -14z m1039 -984 c41
-20 48 -52 18 -79 -42 -38 -233 -10 -258 37 -8 14 -4 20 18 28 88 35 170 40
222 14z"/>
<path d="M5014 7915 c8 -8 18 -15 22 -15 3 0 1 7 -6 15 -7 8 -17 15 -22 15 -5
0 -3 -7 6 -15z"/>
<path d="M1478 7793 c-23 -6 -32 -42 -23 -99 7 -48 37 -89 59 -81 27 11 30
162 4 179 -7 4 -15 7 -18 7 -3 -1 -13 -3 -22 -6z"/>
<path d="M1900 7715 c-20 -38 -6 -52 18 -18 17 24 19 32 8 36 -8 3 -19 -5 -26
-18z"/>
<path d="M1460 7504 c-14 -36 -12 -60 6 -78 18 -18 55 -21 71 -5 15 15 -5 89
-24 89 -8 0 -11 5 -8 10 3 6 -3 10 -15 10 -13 0 -24 -9 -30 -26z"/>
<path d="M2972 7263 c3 -14 15 -19 64 -21 l61 -3 7 -112 c7 -128 -5 -212 -34
-242 -17 -16 -32 -20 -76 -18 -39 2 -54 -1 -52 -9 12 -34 131 -31 180 3 50 36
62 91 55 255 -4 80 -9 149 -12 155 -4 5 -49 9 -101 9 -86 0 -95 -2 -92 -17z"/>
<path d="M3900 7258 c-19 -13 -45 -45 -59 -73 -23 -43 -26 -62 -26 -145 0 -71
4 -103 17 -127 27 -48 72 -75 126 -76 68 -1 92 10 92 39 0 24 -1 24 -25 8 -20
-13 -33 -15 -58 -8 -67 19 -99 158 -63 278 18 60 41 86 77 86 21 0 29 -6 38
-31 6 -18 11 -43 11 -56 0 -15 4 -22 11 -17 16 9 5 124 -13 135 -26 17 -94 10
-128 -13z"/>
<path d="M4637 7274 c-4 -4 -7 -45 -7 -91 l0 -83 -55 0 c-64 0 -102 -16 -139
-60 -18 -22 -26 -43 -26 -68 0 -46 8 -58 43 -71 42 -16 50 -13 33 11 -26 36
-20 85 13 118 32 33 69 45 106 36 24 -6 25 -9 25 -91 0 -47 1 -88 3 -92 1 -5
-13 -9 -31 -11 -18 -2 -30 -8 -27 -13 4 -5 -1 -9 -10 -9 -9 0 -14 -4 -11 -9
10 -15 -22 -20 -34 -5 -9 10 -27 13 -59 10 -84 -8 -101 -16 -101 -54 l0 -27
-22 32 c-24 34 -55 46 -44 17 3 -9 6 -19 6 -24 0 -5 12 -22 26 -39 14 -17 22
-31 17 -31 -12 0 -70 56 -103 98 -26 33 -43 43 -34 18 4 -9 -3 -13 -20 -13
-26 0 -26 11 2 55 8 12 10 22 4 22 -30 0 -46 143 -23 198 29 68 104 75 136 12
17 -33 23 -129 11 -168 -6 -19 -4 -22 22 -22 25 0 30 5 36 31 25 125 -34 239
-123 239 -86 0 -121 -51 -121 -175 0 -47 6 -90 13 -106 10 -17 12 -39 7 -70
-4 -24 -8 -38 -9 -31 -2 23 -32 12 -49 -18 -17 -30 -32 -39 -32 -20 0 6 -12
10 -26 10 -14 0 -23 -4 -20 -8 8 -13 -23 -52 -40 -52 -11 0 -13 6 -9 20 4 11
2 20 -4 20 -20 0 -33 -44 -38 -124 l-5 -81 46 -59 c58 -75 59 -85 2 -79 -38 5
-48 2 -71 -21 l-27 -27 33 -22 c30 -20 58 -52 144 -163 22 -28 32 -54 36 -94
l6 -55 1 58 c2 66 5 67 92 39 78 -24 79 -25 69 -74 -14 -76 -9 -85 18 -30 14
29 31 51 37 49 18 -6 19 -143 2 -237 -8 -47 -18 -102 -21 -123 -5 -30 -10 -37
-23 -33 -9 3 -29 8 -43 11 -24 6 -25 9 -21 64 3 42 -1 67 -13 92 -19 37 -93
112 -116 118 -8 1 -35 9 -61 15 -26 7 -45 9 -43 5 8 -12 -6 -39 -21 -39 -8 0
-14 -9 -14 -19 0 -39 -11 -51 -39 -45 -14 4 -32 11 -38 17 -9 6 -13 6 -13 -2
0 -16 95 -117 144 -152 l38 -29 -25 -9 c-43 -17 -95 -70 -113 -116 -21 -55
-10 -104 43 -205 34 -67 36 -69 82 -75 30 -4 60 -1 86 9 52 19 103 45 110 57
13 19 27 8 21 -16 -4 -14 -2 -25 3 -25 21 0 39 32 46 80 4 27 10 52 15 55 4 3
11 44 14 92 4 49 11 113 16 143 5 30 11 90 14 134 2 47 9 81 16 86 7 4 15 28
17 54 6 51 13 57 28 24 16 -35 30 -31 50 12 21 46 28 49 43 18 10 -21 11 -19
10 14 -2 27 3 42 17 52 21 15 27 9 -54 54 -55 30 -51 42 16 42 33 0 64 5 71
12 8 8 15 8 24 1 18 -15 111 -26 145 -18 40 9 89 73 88 116 0 37 10 33 -170
75 l-30 7 30 7 c17 4 48 8 71 9 69 2 96 18 131 74 17 29 27 54 21 56 -5 2 -15
-2 -21 -8 -17 -17 -29 -13 -18 7 8 15 2 17 -68 18 -56 0 -88 6 -121 22 -25 12
-35 19 -22 16 13 -3 44 -6 70 -7 40 0 49 4 74 34 31 37 38 61 10 36 -10 -10
-27 -17 -38 -16 -14 0 -13 3 7 10 45 17 43 46 -4 81 -37 27 -39 30 -14 24 33
-8 35 7 5 28 -25 18 -53 21 -43 6 9 -15 -8 -12 -31 5 -10 8 -14 15 -7 15 7 0
10 7 6 17 -5 12 -2 15 10 10 51 -19 61 41 50 283 l-8 155 -25 3 c-14 2 -29 0
-33 -4z m-20 -444 c-1 -20 -8 -25 -20 -14 -3 3 0 12 6 20 16 17 16 17 14 -6z
m-167 -12 c0 -6 -6 -5 -15 2 -8 7 -15 14 -15 16 0 2 7 1 15 -2 8 -4 15 -11 15
-16z m140 -118 c-8 -5 -19 -10 -25 -10 -5 0 -3 5 5 10 8 5 20 10 25 10 6 0 3
-5 -5 -10z m-442 -63 c37 -24 83 -54 102 -66 34 -21 34 -21 7 -15 -16 4 -56
20 -88 35 -33 16 -63 29 -67 29 -18 0 -62 26 -62 37 0 10 14 20 33 22 4 1 38
-19 75 -42z m119 -8 c38 -12 97 -32 133 -44 36 -12 94 -30 130 -39 108 -28
113 -30 118 -44 6 -19 -87 -5 -112 17 -13 11 -20 12 -23 4 -3 -8 -19 -4 -51
12 -26 13 -84 35 -130 49 -80 25 -142 52 -142 61 0 8 5 7 77 -16z m278 7 c-11
-8 -24 -12 -29 -8 -5 3 -1 9 10 13 31 12 39 10 19 -5z m140 5 c-6 -5 -26 -12
-45 -15 l-35 -6 35 14 c42 17 58 20 45 7z m-583 -278 c32 -25 56 -49 53 -52
-7 -6 -118 72 -123 87 -7 22 13 12 70 -35z m222 -32 c33 -34 28 -55 -5 -25
-12 10 -24 17 -28 15 -3 -2 -11 6 -17 18 -7 13 -17 28 -23 34 -6 6 -11 15 -11
20 0 11 48 -24 84 -62z"/>
<path d="M3285 7168 c-38 -30 -55 -76 -55 -151 0 -153 119 -236 210 -145 72
72 64 234 -15 296 -37 30 -103 30 -140 0z m134 -69 c18 -53 14 -149 -9 -186
-22 -36 -58 -50 -88 -34 -48 25 -72 150 -43 220 30 70 116 70 140 0z"/>
<path d="M3586 7160 c-59 -52 -82 -162 -51 -238 31 -74 88 -106 148 -83 21 8
27 17 27 41 l0 31 -26 -20 c-33 -26 -56 -27 -77 -3 -24 26 -22 29 20 37 21 4
50 16 65 27 24 17 28 26 27 66 0 26 -3 40 -6 32 -14 -38 -82 -90 -118 -90 -40
0 -2 155 44 180 27 14 68 13 75 -2 3 -7 4 1 3 17 -2 28 -5 30 -49 33 -40 3
-51 -1 -82 -28z"/>
<path d="M4844 7180 c-79 -32 -119 -181 -74 -275 34 -70 107 -89 164 -44 37
29 19 46 -24 24 -37 -19 -75 -13 -90 14 -9 17 -6 20 23 26 113 24 190 173 122
240 -25 26 -78 33 -121 15z m87 -30 c26 -15 26 -82 -1 -125 -21 -35 -73 -65
-110 -65 -22 0 -22 3 -16 56 8 69 28 109 64 128 33 18 38 19 63 6z"/>
<path d="M7145 6913 c-14 -13 -16 -31 -13 -90 3 -67 6 -76 36 -105 l32 -33 0
123 c0 114 -1 122 -19 122 -11 0 -27 -8 -36 -17z"/>
<path d="M426 6715 c-16 -16 -12 -76 10 -168 8 -32 14 -68 15 -80 2 -35 38 84
38 126 1 52 -18 125 -35 131 -7 3 -20 -1 -28 -9z"/>
<path d="M3709 6140 c-3 -206 -4 -381 -1 -388 6 -16 64 -12 70 6 2 6 -3 12
-12 12 -8 0 -17 4 -20 8 -2 4 -8 115 -11 247 -15 492 -20 517 -26 115z"/>
<path d="M210 6460 c0 -5 5 -10 10 -10 6 0 10 5 10 10 0 6 -4 10 -10 10 -5 0
-10 -4 -10 -10z"/>
<path d="M175 6250 c-38 -10 -94 -21 -122 -25 l-53 -7 0 -179 0 -179 248 0
c136 0 276 -5 312 -10 35 -5 66 -8 67 -6 2 1 6 50 9 108 6 85 4 114 -10 156
-10 29 -23 52 -30 52 -7 0 -22 -13 -34 -29 -26 -36 -75 -49 -98 -27 -9 9 -18
36 -21 59 -8 80 -11 85 -37 80 -13 -3 -37 2 -54 11 -39 20 -88 19 -177 -4z"/>
<path d="M4778 6193 c12 -2 30 -2 40 0 9 3 -1 5 -23 4 -22 0 -30 -2 -17 -4z"/>
<path d="M4808 6103 c-50 -4 -58 -12 -33 -33 13 -10 23 -10 55 5 22 10 40 22
40 27 0 4 -3 7 -7 6 -5 -1 -29 -3 -55 -5z"/>
<path d="M4580 6076 c0 -23 28 -39 56 -32 l27 7 -37 20 c-43 23 -46 23 -46 5z"/>
<path d="M4678 6063 c7 -3 16 -2 19 1 4 3 -2 6 -13 5 -11 0 -14 -3 -6 -6z"/>
<path d="M3832 5940 c0 -14 2 -19 5 -12 2 6 2 18 0 25 -3 6 -5 1 -5 -13z"/>
<path d="M0 5591 l0 -141 83 -1 c111 -1 129 -8 141 -48 12 -41 5 -47 -130
-116 l-94 -49 0 -73 c0 -68 1 -73 18 -63 9 6 53 34 98 63 252 163 403 252 442
262 l44 11 4 120 c3 65 7 126 10 135 6 20 -53 26 -388 35 l-228 7 0 -142z"/>
<path d="M822 5701 c-8 -5 -10 -15 -5 -27 8 -19 17 -21 111 -23 27 -1 32 -5
32 -26 0 -16 6 -25 16 -25 12 0 15 7 12 25 -3 16 -1 25 7 25 12 0 25 21 25 38
0 4 -35 8 -78 10 -42 2 -84 5 -92 7 -8 3 -21 1 -28 -4z"/>
<path d="M4432 5649 c-18 -12 -42 -39 -52 -60 -28 -54 -25 -105 9 -165 l30
-51 112 -2 c62 -1 124 -4 137 -8 31 -7 49 18 57 83 11 82 -6 125 -67 167 -29
20 -66 41 -81 46 -46 18 -109 13 -145 -10z m257 -153 c-10 -9 -69 -36 -69 -32
0 7 52 35 64 36 5 0 7 -2 5 -4z"/>
<path d="M796 5614 c-9 -23 -2 -28 13 -10 7 8 8 17 3 20 -6 3 -13 -1 -16 -10z"/>
<path d="M952 5575 c-7 -8 -8 -15 -3 -15 6 0 8 -8 5 -17 -3 -10 2 -7 10 7 24
39 16 56 -12 25z"/>
<path d="M910 5459 c0 -5 5 -7 10 -4 6 3 10 8 10 11 0 2 -4 4 -10 4 -5 0 -10
-5 -10 -11z"/>
<path d="M3585 5350 c3 -5 8 -10 11 -10 2 0 4 5 4 10 0 6 -5 10 -11 10 -5 0
-7 -4 -4 -10z"/>
<path d="M4119 5210 c-21 -5 -21 -6 5 -18 15 -6 33 -12 40 -12 11 0 11 -11 -1
-60 -9 -34 -13 -63 -10 -66 3 -3 18 1 35 10 22 11 32 26 40 59 l11 43 66 -4
c52 -4 65 -2 63 9 -2 11 13 13 77 11 64 -3 92 -9 140 -33 43 -21 81 -31 135
-35 69 -6 76 -4 87 15 16 25 9 30 -102 62 -74 22 -98 24 -322 24 -133 0 -252
-2 -264 -5z"/>
<path d="M5070 5134 c0 -3 14 -39 31 -80 l31 -75 -4 -202 c-3 -111 -9 -211
-13 -222 -7 -18 -6 -18 7 -5 9 8 28 51 43 95 41 116 46 258 14 358 -15 47 -34
83 -55 105 -29 29 -54 41 -54 26z"/>
<path d="M2671 4908 c-19 -5 -43 -15 -53 -23 -18 -12 -17 -13 9 -18 17 -3 43
3 68 15 22 12 51 24 65 29 21 6 19 7 -15 7 -22 0 -55 -4 -74 -10z"/>
<path d="M2495 4533 c-52 -113 -57 -125 -51 -131 3 -3 0 -12 -8 -21 -18 -22
-30 -61 -17 -61 5 0 13 10 16 23 4 12 19 49 35 82 33 73 62 156 56 162 -2 3
-17 -21 -31 -54z"/>
<path d="M2361 4174 c0 -11 3 -14 6 -6 3 7 2 16 -1 19 -3 4 -6 -2 -5 -13z"/>
<path d="M3768 3833 c7 -3 16 -2 19 1 4 3 -2 6 -13 5 -11 0 -14 -3 -6 -6z"/>
<path d="M3913 3823 c-22 -8 -15 -53 10 -62 19 -7 24 -4 34 23 6 17 12 34 12
39 1 8 -37 8 -56 0z"/>
<path d="M3918 3723 c-11 -3 -18 -20 -22 -56 -25 -209 -46 -331 -60 -345 -3
-3 -16 3 -28 14 l-22 19 22 -38 21 -37 -24 -131 c-14 -73 -25 -145 -25 -160 0
-52 17 -30 39 49 20 74 29 114 73 322 11 52 24 109 28 125 5 17 11 59 14 95 4
36 9 84 12 108 4 23 2 41 -2 41 -5 -1 -16 -3 -26 -6z"/>
<path d="M3730 2944 c0 -57 -41 -208 -95 -356 -105 -289 -198 -576 -201 -618
-1 -25 -6 -56 -10 -70 l-7 -25 27 24 c14 14 26 32 26 41 0 15 70 231 103 315
8 22 34 101 57 175 23 74 54 169 69 210 15 41 33 98 40 125 7 28 17 59 21 70
21 50 19 91 -6 121 l-23 29 -1 -41z"/>
<path d="M3772 2780 c0 -19 3 -44 8 -55 8 -18 9 -18 8 5 0 14 -4 39 -8 55 l-8
30 0 -35z"/>
<path d="M2030 1954 c0 -8 5 -12 10 -9 6 3 10 10 10 16 0 5 -4 9 -10 9 -5 0
-10 -7 -10 -16z"/>
<path d="M2015 1873 c-4 -21 -9 -50 -10 -65 -2 -15 -13 -78 -24 -140 -11 -62
-23 -129 -26 -148 -4 -19 -11 -60 -16 -90 -30 -170 -57 -422 -44 -409 5 6 32
159 40 231 8 71 33 232 45 288 18 88 49 266 54 318 6 60 -8 71 -19 15z"/>
<path d="M2067 1648 c-18 -102 -28 -154 -46 -253 -21 -112 -74 -428 -91 -545
-32 -205 -60 -407 -70 -495 -7 -55 -21 -150 -31 -212 -25 -148 -26 -143 16
-143 l35 0 1 48 c0 26 2 67 5 92 2 25 11 110 19 190 8 80 17 188 20 240 9 131
108 818 154 1063 4 26 5 47 1 47 -4 0 -10 -15 -13 -32z"/>
<path d="M1591 1194 c0 -11 3 -14 6 -6 3 7 2 16 -1 19 -3 4 -6 -2 -5 -13z"/>
<path d="M2633 1123 c-1 -20 -6 -39 -11 -42 -4 -3 -9 -15 -9 -26 -1 -20 -25
-119 -45 -185 -6 -19 -14 -64 -19 -100 -9 -71 -30 -210 -54 -360 -9 -52 -20
-126 -26 -165 -5 -38 -14 -78 -19 -87 -5 -10 -7 -24 -4 -33 4 -8 2 -21 -4 -28
-5 -6 -12 -31 -15 -55 l-5 -42 108 0 c89 0 109 3 114 16 8 21 8 26 -3 20 -27
-17 -33 28 -32 268 1 135 4 252 6 258 6 18 25 287 31 428 2 63 6 127 9 143 3
17 0 27 -8 27 -7 0 -13 -16 -14 -37z"/>
<path d="M3839 704 c-4 -37 -9 -116 -23 -379 -9 -165 -16 -306 -16 -312 0 -7
9 -13 20 -13 18 0 20 7 20 73 0 39 2 135 5 212 7 190 7 416 0 423 -3 3 -5 1
-6 -4z"/>
<path d="M1461 663 c-10 -22 -10 -25 4 -19 9 3 19 6 21 6 2 0 4 6 4 14 0 26
-17 26 -29 -1z"/>
<path d="M3440 320 c0 -16 2 -30 4 -30 2 0 6 14 8 30 3 17 1 30 -4 30 -4 0 -8
-13 -8 -30z"/>
<path d="M3542 217 c-25 -192 -26 -217 -10 -217 13 0 17 26 23 151 4 83 5 152
3 155 -3 2 -10 -38 -16 -89z"/>
<path d="M5291 235 c-2 -80 12 -235 22 -235 10 0 2 163 -13 235 l-8 40 -1 -40z"/>
<path d="M3437 162 c-11 -161 -11 -162 19 -162 27 0 27 0 20 61 -3 34 -6 90
-6 124 0 44 -4 64 -14 68 -10 4 -15 -16 -19 -91z"/>
<path d="M2633 90 c-6 -14 -7 -29 -2 -34 13 -15 21 -1 17 31 l-4 28 -11 -25z"/>
</g>
</svg>
